# xmcd
#
# Track frame offsets:
#	150
#	11125
#	23291
#	36948
#	48370
#	62564
#	77489
#	90163
#	103938
#	117581
#	125052
#	145243
#	158441
#
# Disc length: 2277 seconds
#
# Revision: 1
# Processed by: cddbd v1.5.2PL0 Copyright (c) Steve Scherf et al.
# Submitted via: audiograbber 1.83.01
#
DISCID=9c08e30d
DTITLE=Various Artist - Hooked On Blues
DYEAR=1953
DGENRE=Blue
TTITLE0=Real Real Gone
TTITLE1=Buitar Lovin' Man
TTITLE2=My Baby Don't Love Me
TTITLE3=Guitar Blues
TTITLE4=I'm Wonderin' and Wonderin'
TTITLE5=I'm Wonderin' and Wonderin'
TTITLE6=Where Did You Go
TTITLE7=Red and White Blues
TTITLE8=Red Tam is a Lover
TTITLE9=Back Door Man
TTITLE10=The Love You Save
TTITLE11=Let Him Go
TTITLE12=I Been Hit by Love
EXTD=
EXTT0=
EXTT1=
EXTT2=
EXTT3=
EXTT4=
EXTT5=
EXTT6=
EXTT7=
EXTT8=
EXTT9=
EXTT10=
EXTT11=
EXTT12=
PLAYORDER=
